<?xml version="1.0" encoding="utf-8"?>
<!-- Generator: Adobe Illustrator 26.0.0, SVG Export Plug-In . SVG Version: 6.00 Build 0)  -->
<svg version="1.1" id="Слой_1" xmlns="http://www.w3.org/2000/svg" xmlns:xlink="http://www.w3.org/1999/xlink" x="0px" y="0px"
	 viewBox="0 0 1916.6 333.1" style="enable-background:new 0 0 1916.6 333.1;" xml:space="preserve">
<style type="text/css">
	.st0{fill:#D40511;}
</style>
<g>
	<path class="st0" d="M0,284.9h232.6L219,303.8H0V284.9z"/>
	<path class="st0" d="M1916.6,303.8H1632l14.2-18.9h270.4V303.8z"/>
	<path class="st0" d="M0,249.8h258.9l-14.2,18.9H0V249.8L0,249.8z"/>
	<path class="st0" d="M0,214.6h285.3l-14.2,18.9H0L0,214.6L0,214.6z"/>
	<path class="st0" d="M1916.6,268.7h-258.3l14.2-18.9h244.1V268.7z"/>
	<path class="st0" d="M1698.9,214.6h217.7v18.9h-231.9L1698.9,214.6z"/>
	<path class="st0" d="M250.8,303.8l123-164.3c0,0,136.6,0,152.8,0c16.9,0,16.9,6.1,8.1,17.6c-8.1,10.8-22.3,30.4-31.1,41.9
		c-4.1,6.1-12.2,16.2,13.5,16.2c27.7,0,204.2,0,204.2,0c-16.9,23-72.3,89.2-171,89.2C470.5,303.8,250.8,303.8,250.8,303.8
		L250.8,303.8z"/>
	<path class="st0" d="M955.3,214.6l-66.9,89.2H712.6l66.9-89.2H955.3L955.3,214.6z"/>
	<path class="st0" d="M1209.5,214.6l-66.9,89.2H966.8l66.9-89.2H1209.5z"/>
	<path class="st0" d="M1266.9,214.6c0,0-12.8,17.6-18.9,25.7c-22.3,29.1-2.7,63.5,69.6,63.5c83.2,0,282.6,0,282.6,0l66.9-89.2
		H1266.9z"/>
	<path class="st0" d="M337.4,37.5l-61.5,81.8c0,0,317.1,0,334,0s16.9,6.1,8.1,17.6c-8.1,10.8-22.3,30.4-31.1,41.9
		c-4.1,5.4-12.2,16.2,13.5,16.2c27.7,0,136.6,0,136.6,0s22.3-29.7,40.6-54.1c25-33.1,2-102.8-87.2-102.8
		C609.8,37.5,337.4,37.5,337.4,37.5L337.4,37.5z"/>
	<path class="st0" d="M1225,194.3H794.4L912,37.5h175.8l-66.9,89.9h78.4l67.6-89.9h175.8L1225,194.3L1225,194.3z"/>
	<path class="st0" d="M1586,37.5l-117.6,156.8h-186.6l117.6-156.8H1586z"/>
</g>
</svg>
